<svg xmlns="http://www.w3.org/2000/svg" viewBox="0 0 600 800" width="600" height="800" preserveAspectRatio="xMidYMid slice"><defs><linearGradient id="sky" x1="0" y1="0" x2="0" y2="1"><stop offset="0" stop-color="#F4D9A8"/><stop offset="1" stop-color="#F6F1E7"/></linearGradient></defs><rect width="600" height="800" fill="url(#sky)"/><circle cx="470" cy="170" r="101.2" fill="#F7E3A8" opacity=".18"/><circle cx="470" cy="170" r="69.0" fill="#F7E3A8" opacity=".3"/><circle cx="470" cy="170" r="46" fill="#F7E3A8"/><polygon points="0,1000 0,418.9 40,414.3 80,410.3 120,408.0 160,406.8 200,405.2 240,401.2 280,394.4 320,385.7 360,377.8 400,373.6 440,374.8 480,381.5 520,391.6 560,402.0 600,409.8 600,1000" fill="#8CA98C"/><rect y="470" width="600" height="330" fill="#5B8A55"/><polygon points="300.0,470 -600,800 -525,800" fill="#3F6B4A" opacity=".55"/><polygon points="300.0,470 -450,800 -375,800" fill="#3F6B4A" opacity=".55"/><polygon points="300.0,470 -300,800 -225,800" fill="#3F6B4A" opacity=".55"/><polygon points="300.0,470 -150,800 -75,800" fill="#3F6B4A" opacity=".55"/><polygon points="300.0,470 0,800 75,800" fill="#3F6B4A" opacity=".55"/><polygon points="300.0,470 150,800 225,800" fill="#3F6B4A" opacity=".55"/><polygon points="300.0,470 300,800 375,800" fill="#3F6B4A" opacity=".55"/><polygon points="300.0,470 450,800 525,800" fill="#3F6B4A" opacity=".55"/><polygon points="300.0,470 600,800 675,800" fill="#3F6B4A" opacity=".55"/><polygon points="300.0,470 750,800 825,800" fill="#3F6B4A" opacity=".55"/><polygon points="300.0,470 900,800 975,800" fill="#3F6B4A" opacity=".55"/><polygon points="300.0,470 1050,800 1125,800" fill="#3F6B4A" opacity=".55"/><g transform="translate(300.0,800) scale(1.22) translate(-300.0,-800)"><path d="M110.0,800 Q110.0,528.0 240.0,504.0 L360.0,504.0 Q490.0,528.0 490.0,800Z" fill="#3F6B4A"/><rect x="274.0" y="448.00000000000006" width="52" height="80.0" fill="#E8B98F"/><ellipse cx="300.0" cy="376.0" rx="78" ry="88" fill="#E8B98F"/><path d="M222.0,362.0 Q230.0,290.0 300.0,286.0 Q370.0,290.0 378.0,362.0 Q350.0,324.0 300.0,324.0 Q250.0,324.0 222.0,362.0Z" fill="#2B2118"/><circle cx="272.0" cy="380.0" r="6" fill="#2B2118"/><circle cx="328.0" cy="380.0" r="6" fill="#2B2118"/><path d="M274.0,416.0 Q300.0,438.0 326.0,416.0" stroke="#2B2118" stroke-width="5" fill="none" stroke-linecap="round"/><ellipse cx="300.0" cy="324.0" rx="150" ry="30" fill="#E2C47C"/><path d="M212.0,320.0 Q220.0,236.0 300.0,236.0 Q380.0,236.0 388.0,320.0Z" fill="#EBD08C"/><rect x="210.0" y="298.0" width="180" height="16" fill="#C8402F"/><path d="M150.0,640.0 L450.0,640.0 L428.0,760.0 L172.0,760.0Z" fill="#6B4F3B"/><rect x="142.0" y="630.0" width="316" height="20" rx="6" fill="#9C7A56"/><circle cx="180.0" cy="622.0" r="21" fill="#C8402F"/><circle cx="210.0" cy="610.0" r="21" fill="#4E8B4A"/><circle cx="240.0" cy="622.0" r="21" fill="#E58A2B"/><circle cx="270.0" cy="610.0" r="21" fill="#C8402F"/><circle cx="300.0" cy="622.0" r="21" fill="#4E8B4A"/><circle cx="330.0" cy="610.0" r="21" fill="#E58A2B"/><circle cx="360.0" cy="622.0" r="21" fill="#C8402F"/><circle cx="390.0" cy="610.0" r="21" fill="#4E8B4A"/><circle cx="420.0" cy="622.0" r="21" fill="#E58A2B"/></g></svg>