<svg xmlns="http://www.w3.org/2000/svg" viewBox="0 0 800 800" width="800" height="800" preserveAspectRatio="xMidYMid slice"><defs><linearGradient id="bg" x1="0" y1="0" x2="0" y2="1"><stop offset="0" stop-color="#F5F1E7"/><stop offset="1" stop-color="#E4DBC4"/></linearGradient></defs><rect width="800" height="800" fill="url(#bg)"/><circle cx="180" cy="170" r="210" fill="#fff" opacity=".22"/><rect y="560" width="800" height="240" fill="#9C7A56" opacity=".38"/><rect y="560" width="800" height="10" fill="#6B4F3B" opacity=".25"/><ellipse cx="400" cy="690" rx="300" ry="48.0" fill="#000" opacity=".16"/><path d="M140,470 L660,470 Q650,690 400,700 Q150,690 140,470Z" fill="#FBF8F1"/><ellipse cx="400" cy="470" rx="260" ry="52" fill="#E9E1CC"/><ellipse cx="400" cy="462" rx="240" ry="42" fill="#FFFDF6"/><path d="M290,462 Q400,420 510,462 Q400,490 290,462Z" fill="#F4EEDD"/><path d="M470,440 q10,30 -4,50 q-16,-6 -8,-30z" fill="#C7AC72"/><g transform="rotate(50 600 440)"><path d="M600,440 Q570,405.0 600,370 Q630,405.0 600,440Z" fill="#5FA46B"/><line x1="600" y1="440" x2="600" y2="375.6" stroke="#fff" stroke-opacity=".3" stroke-width="3"/></g></svg>