<svg xmlns="http://www.w3.org/2000/svg" viewBox="0 0 1200 800" width="1200" height="800" preserveAspectRatio="xMidYMid slice"><defs><linearGradient id="sky" x1="0" y1="0" x2="0" y2="1"><stop offset="0" stop-color="#B8D4E0"/><stop offset="1" stop-color="#F3EFE2"/></linearGradient></defs><rect width="1200" height="800" fill="url(#sky)"/><circle cx="880" cy="150" r="114.4" fill="#FBE9B0" opacity=".18"/><circle cx="880" cy="150" r="78.0" fill="#FBE9B0" opacity=".3"/><circle cx="880" cy="150" r="52" fill="#FBE9B0"/><polygon points="0,1000 0,376.6 40,373.0 80,371.1 120,370.8 160,372.0 200,374.3 240,377.3 280,380.6 320,383.8 360,386.6 400,388.8 440,390.4 480,391.4 520,392.3 560,393.1 600,394.2 640,396.0 680,398.7 720,402.3 760,406.8 800,412.0 840,417.5 880,423.0 920,427.8 960,431.6 1000,433.9 1040,434.4 1080,433.0 1120,429.8 1160,424.9 1200,418.8 1200,1000" fill="#8CA98C"/><polygon points="0,1050 0,457.5 40,451.4 80,445.8 120,440.9 160,437.1 200,434.5 240,433.0 280,432.5 320,432.8 360,433.5 400,434.4 440,435.2 480,435.7 520,435.7 560,435.4 600,434.8 640,434.3 680,434.0 720,434.2 760,435.4 800,437.5 840,440.8 880,445.1 920,450.4 960,456.1 1000,462.1 1040,467.7 1080,472.6 1120,476.3 1160,478.6 1200,479.3 1200,1050" fill="#5B7A5E"/><rect x="143.6" y="437.0" width="8.8" height="33.0" fill="#6B4F3B"/><circle cx="148" cy="417.2" r="33.0" fill="#5B7A5E"/><circle cx="128.2" cy="430.4" r="22.0" fill="#5B7A5E"/><circle cx="167.8" cy="428.2" r="24.200000000000003" fill="#5B7A5E"/><rect x="402.6" y="429.5" width="10.8" height="40.5" fill="#6B4F3B"/><circle cx="408" cy="405.2" r="40.5" fill="#3F6B4A"/><circle cx="383.7" cy="421.4" r="27.0" fill="#3F6B4A"/><circle cx="432.3" cy="418.7" r="29.700000000000003" fill="#3F6B4A"/><rect x="663.6" y="437.0" width="8.8" height="33.0" fill="#6B4F3B"/><circle cx="668" cy="417.2" r="33.0" fill="#1E3F30"/><circle cx="648.2" cy="430.4" r="22.0" fill="#1E3F30"/><circle cx="687.8" cy="428.2" r="24.200000000000003" fill="#1E3F30"/><rect x="922.6" y="429.5" width="10.8" height="40.5" fill="#6B4F3B"/><circle cx="928" cy="405.2" r="40.5" fill="#5B7A5E"/><circle cx="903.7" cy="421.4" r="27.0" fill="#5B7A5E"/><circle cx="952.3" cy="418.7" r="29.700000000000003" fill="#5B7A5E"/><rect x="1183.6" y="437.0" width="8.8" height="33.0" fill="#6B4F3B"/><circle cx="1188" cy="417.2" r="33.0" fill="#3F6B4A"/><circle cx="1168.2" cy="430.4" r="22.0" fill="#3F6B4A"/><circle cx="1207.8" cy="428.2" r="24.200000000000003" fill="#3F6B4A"/><rect y="470" width="1200" height="330" fill="#D7C39A"/><rect y="470" width="1200" height="12" fill="#C4AE82"/><g transform="translate(47,320) scale(1.35)"><rect x="4" y="0" width="8" height="190" fill="#6B4F3B"/><rect x="238" y="0" width="8" height="190" fill="#6B4F3B"/><circle cx="18" cy="122" r="17" fill="#E58A2B"/><circle cx="50" cy="122" r="17" fill="#E58A2B"/><circle cx="82" cy="122" r="17" fill="#E58A2B"/><circle cx="114" cy="122" r="17" fill="#E58A2B"/><circle cx="146" cy="122" r="17" fill="#E58A2B"/><circle cx="178" cy="122" r="17" fill="#E58A2B"/><circle cx="210" cy="122" r="17" fill="#E58A2B"/><circle cx="30" cy="102" r="17" fill="#C8402F"/><circle cx="62" cy="102" r="17" fill="#C8402F"/><circle cx="94" cy="102" r="17" fill="#C8402F"/><circle cx="126" cy="102" r="17" fill="#C8402F"/><circle cx="158" cy="102" r="17" fill="#C8402F"/><circle cx="190" cy="102" r="17" fill="#C8402F"/><circle cx="222" cy="102" r="17" fill="#C8402F"/><rect x="0" y="130" width="250" height="18" fill="#9C7A56"/><rect x="8" y="148" width="234" height="56" fill="#6B4F3B"/><polygon points="0,0 36,0 40,46 -4,46" fill="#E58A2B"/><circle cx="18" cy="46" r="20" fill="#E58A2B"/><polygon points="36,0 71,0 75,46 32,46" fill="#F6F1E7"/><circle cx="54" cy="46" r="20" fill="#F6F1E7"/><polygon points="71,0 107,0 111,46 67,46" fill="#E58A2B"/><circle cx="89" cy="46" r="20" fill="#E58A2B"/><polygon points="107,0 143,0 147,46 103,46" fill="#F6F1E7"/><circle cx="125" cy="46" r="20" fill="#F6F1E7"/><polygon points="143,0 179,0 183,46 139,46" fill="#E58A2B"/><circle cx="161" cy="46" r="20" fill="#E58A2B"/><polygon points="179,0 214,0 218,46 175,46" fill="#F6F1E7"/><circle cx="196" cy="46" r="20" fill="#F6F1E7"/><polygon points="214,0 250,0 254,46 210,46" fill="#E58A2B"/><circle cx="232" cy="46" r="20" fill="#E58A2B"/></g><g transform="translate(431,320) scale(1.35)"><rect x="4" y="0" width="8" height="190" fill="#6B4F3B"/><rect x="238" y="0" width="8" height="190" fill="#6B4F3B"/><circle cx="18" cy="122" r="17" fill="#C8402F"/><circle cx="50" cy="122" r="17" fill="#C8402F"/><circle cx="82" cy="122" r="17" fill="#C8402F"/><circle cx="114" cy="122" r="17" fill="#C8402F"/><circle cx="146" cy="122" r="17" fill="#C8402F"/><circle cx="178" cy="122" r="17" fill="#C8402F"/><circle cx="210" cy="122" r="17" fill="#C8402F"/><circle cx="30" cy="102" r="17" fill="#E58A2B"/><circle cx="62" cy="102" r="17" fill="#E58A2B"/><circle cx="94" cy="102" r="17" fill="#E58A2B"/><circle cx="126" cy="102" r="17" fill="#E58A2B"/><circle cx="158" cy="102" r="17" fill="#E58A2B"/><circle cx="190" cy="102" r="17" fill="#E58A2B"/><circle cx="222" cy="102" r="17" fill="#E58A2B"/><rect x="0" y="130" width="250" height="18" fill="#9C7A56"/><rect x="8" y="148" width="234" height="56" fill="#6B4F3B"/><polygon points="0,0 36,0 40,46 -4,46" fill="#C8402F"/><circle cx="18" cy="46" r="20" fill="#C8402F"/><polygon points="36,0 71,0 75,46 32,46" fill="#F6F1E7"/><circle cx="54" cy="46" r="20" fill="#F6F1E7"/><polygon points="71,0 107,0 111,46 67,46" fill="#C8402F"/><circle cx="89" cy="46" r="20" fill="#C8402F"/><polygon points="107,0 143,0 147,46 103,46" fill="#F6F1E7"/><circle cx="125" cy="46" r="20" fill="#F6F1E7"/><polygon points="143,0 179,0 183,46 139,46" fill="#C8402F"/><circle cx="161" cy="46" r="20" fill="#C8402F"/><polygon points="179,0 214,0 218,46 175,46" fill="#F6F1E7"/><circle cx="196" cy="46" r="20" fill="#F6F1E7"/><polygon points="214,0 250,0 254,46 210,46" fill="#C8402F"/><circle cx="232" cy="46" r="20" fill="#C8402F"/></g><g transform="translate(816,320) scale(1.35)"><rect x="4" y="0" width="8" height="190" fill="#6B4F3B"/><rect x="238" y="0" width="8" height="190" fill="#6B4F3B"/><circle cx="18" cy="122" r="17" fill="#E0752B"/><circle cx="50" cy="122" r="17" fill="#E0752B"/><circle cx="82" cy="122" r="17" fill="#E0752B"/><circle cx="114" cy="122" r="17" fill="#E0752B"/><circle cx="146" cy="122" r="17" fill="#E0752B"/><circle cx="178" cy="122" r="17" fill="#E0752B"/><circle cx="210" cy="122" r="17" fill="#E0752B"/><circle cx="30" cy="102" r="17" fill="#E7C04A"/><circle cx="62" cy="102" r="17" fill="#E7C04A"/><circle cx="94" cy="102" r="17" fill="#E7C04A"/><circle cx="126" cy="102" r="17" fill="#E7C04A"/><circle cx="158" cy="102" r="17" fill="#E7C04A"/><circle cx="190" cy="102" r="17" fill="#E7C04A"/><circle cx="222" cy="102" r="17" fill="#E7C04A"/><rect x="0" y="130" width="250" height="18" fill="#9C7A56"/><rect x="8" y="148" width="234" height="56" fill="#6B4F3B"/><polygon points="0,0 36,0 40,46 -4,46" fill="#5B7A5E"/><circle cx="18" cy="46" r="20" fill="#5B7A5E"/><polygon points="36,0 71,0 75,46 32,46" fill="#F6F1E7"/><circle cx="54" cy="46" r="20" fill="#F6F1E7"/><polygon points="71,0 107,0 111,46 67,46" fill="#5B7A5E"/><circle cx="89" cy="46" r="20" fill="#5B7A5E"/><polygon points="107,0 143,0 147,46 103,46" fill="#F6F1E7"/><circle cx="125" cy="46" r="20" fill="#F6F1E7"/><polygon points="143,0 179,0 183,46 139,46" fill="#5B7A5E"/><circle cx="161" cy="46" r="20" fill="#5B7A5E"/><polygon points="179,0 214,0 218,46 175,46" fill="#F6F1E7"/><circle cx="196" cy="46" r="20" fill="#F6F1E7"/><polygon points="214,0 250,0 254,46 210,46" fill="#5B7A5E"/><circle cx="232" cy="46" r="20" fill="#5B7A5E"/></g><rect y="688" width="1200" height="112" fill="#6B4F3B" opacity=".22"/><path d="M82,720 L222,720 L212,770 L92,770Z" fill="#6B4F3B"/><circle cx="102" cy="712" r="15" fill="#E58A2B"/><circle cx="127" cy="704" r="15" fill="#C8402F"/><circle cx="152" cy="712" r="15" fill="#E58A2B"/><circle cx="177" cy="704" r="15" fill="#C8402F"/><circle cx="202" cy="712" r="15" fill="#E58A2B"/><path d="M382,720 L522,720 L512,770 L392,770Z" fill="#6B4F3B"/><circle cx="402" cy="712" r="15" fill="#E9E1CC"/><circle cx="427" cy="704" r="15" fill="#F6F1E7"/><circle cx="452" cy="712" r="15" fill="#E9E1CC"/><circle cx="477" cy="704" r="15" fill="#F6F1E7"/><circle cx="502" cy="712" r="15" fill="#E9E1CC"/><path d="M682,720 L822,720 L812,770 L692,770Z" fill="#6B4F3B"/><circle cx="702" cy="712" r="15" fill="#C8402F"/><circle cx="727" cy="704" r="15" fill="#E58A2B"/><circle cx="752" cy="712" r="15" fill="#C8402F"/><circle cx="777" cy="704" r="15" fill="#E58A2B"/><circle cx="802" cy="712" r="15" fill="#C8402F"/><path d="M982,720 L1122,720 L1112,770 L992,770Z" fill="#6B4F3B"/><circle cx="1002" cy="712" r="15" fill="#4E8B4A"/><circle cx="1027" cy="704" r="15" fill="#5FA46B"/><circle cx="1052" cy="712" r="15" fill="#4E8B4A"/><circle cx="1077" cy="704" r="15" fill="#5FA46B"/><circle cx="1102" cy="712" r="15" fill="#4E8B4A"/></svg>